# xmcd
#
# Track frame offsets: 
#        150
#        14607
#        23987
#        38372
#        51152
#        61445
#        73155
#        89237
#        100425
#        115272
#        132235
#        141845
#        152470
#        165597
#        176217
#        183067
#        198597
#        204850
#
# Disc length: 2953 seconds
#
# Revision: 0
# Processed by: cddbd v1.5.1PL2 Copyright (c) Steve Scherf et al.
# Submitted via: ExactAudioCopy v0.95b4
#
DISCID=000b8712
DTITLE=Stampen En Dagen - Stampen En Dagen
DYEAR=1900
DGENRE=Folk
TTITLE0=Stampen En Dagen
TTITLE1=Den Boemeltrein
TTITLE2=Marie-Claire
TTITLE3=De Hel
TTITLE4=moderne tijden
TTITLE5=billy the kid
TTITLE6=autodebielen
TTITLE7=Rosette
TTITLE8=Tandem
TTITLE9=Hortense
TTITLE10='t zonneken
TTITLE11=miss universe
TTITLE12=my baby is gone
TTITLE13=ons strotje (diggy liggy lo)
TTITLE14=kongee
TTITLE15=z'is 't er vanonder
TTITLE16=De Drie Zonen Van Marie
TTITLE17=kattenblues
EXTD=
EXTT0=
EXTT1=
EXTT2=
EXTT3=
EXTT4=
EXTT5=
EXTT6=
EXTT7=
EXTT8=
EXTT9=
EXTT10=
EXTT11=
EXTT12=
EXTT13=
EXTT14=
EXTT15=
EXTT16=
EXTT17=
PLAYORDER=
